<svg width="128" height="128" viewBox="0 0 128 128" fill="none" xmlns="http://www.w3.org/2000/svg">
  <circle cx="64" cy="64" r="62" fill="#25D366" stroke="#1D4E89" stroke-width="4"/>
  <path d="M64.047 34C48.098 34 35.16 46.605 35.16 62.15C35.16 67.116 36.482 71.97 38.997 76.24L35 90.6L49.847 86.718C53.928 88.895 58.542 90.033 63.233 90.023H63.245C79.188 90.023 92.136 77.414 92.136 61.873C92.136 46.332 79.989 34 64.047 34ZM80.897 74.602C80.185 76.535 76.819 78.338 74.863 78.648C73.486 78.876 71.745 79.056 62.207 75.255C50.007 70.442 42.127 58.502 41.52 57.705C40.929 56.913 36.57 51.159 36.57 45.197C36.57 39.235 39.69 36.327 40.79 35.191C41.89 34.064 43.196 33.779 43.928 33.779C44.648 33.779 45.373 33.791 45.998 33.823C46.6 33.853 47.412 33.599 48.177 35.348C48.952 37.095 50.787 42.983 51.01 43.469C51.24 43.957 51.389 44.53 51.036 45.129C50.695 45.732 50.53 46.104 49.989 46.723C49.451 47.336 48.851 48.094 48.372 48.626C47.83 49.227 47.268 49.88 47.876 50.914C48.487 51.947 50.602 55.383 53.72 58.118C57.729 61.63 61.128 62.749 62.195 63.183C63.255 63.614 63.866 63.545 64.54 62.802C65.211 62.06 67.466 59.512 68.205 58.479C68.95 57.441 69.7 57.618 70.763 58.01C71.823 58.406 77.477 61.15 78.626 61.725C79.773 62.303 80.537 62.592 80.836 63.059C81.136 63.539 81.136 65.938 80.421 67.87L80.897 74.602Z" fill="white"/>
</svg>

